# xmcd
#
# Track frame offsets: 
#        150
#        11177
#        21727
#        37555
#        49177
#        59900
#        70782
#        80907
#        92832
#        105360
#        117962
#        130330
#        143457
#        161230
#        171752
#        184337
#        201727
#        214930
#        225950
#        241937
#        255735
#        265255
#        283702
#        298255
#        311382
#
# Disc length: 4328 seconds
#
# Revision: 4
# Processed by: cddbd v1.5.2PL0 Copyright (c) Steve Scherf et al.
# Submitted via: ExactAudioCopy v1.0b3
#
DISCID=7d10e619
DTITLE=Crystal Gayle - 50 Original Hits [CD1)
DYEAR=1993
DGENRE=Country
TTITLE0=Somebody Loves You
TTITLE1=High Time
TTITLE2=I'll Get Over You
TTITLE3=A Woman's Heart Is
TTITLE4=Restles
TTITLE5=YOou
TTITLE6=Wrong Road Again
TTITLE7=Beyond You
TTITLE8=Hands
TTITLE9=Counterfeit Love
TTITLE10=This Is My Year For Mexico
TTITLE11=Dreaming My Dreams With You
TTITLE12=One More Time
TTITLE13=Oh My Soul
TTITLE14=Come Home Daddy
TTITLE15=You Never Miss A Real Good Thing
TTITLE16=I'll Do It Over Again
TTITLE17=It's Alright With Me
TTITLE18=Going Down Slow
TTITLE19=Make A Dream Come True
TTITLE20=Funny
TTITLE21=We Must Believe In Magic
TTITLE22=Cry Me A River
TTITLE23=WayWard Wind
TTITLE24=Why Have You Left The One You Left For Me
EXTD=YEAR: 1993
EXTT0=
EXTT1=
EXTT2=
EXTT3=
EXTT4=
EXTT5=
EXTT6=
EXTT7=
EXTT8=
EXTT9=
EXTT10=
EXTT11=
EXTT12=
EXTT13=
EXTT14=
EXTT15=
EXTT16=
EXTT17=
EXTT18=
EXTT19=
EXTT20=
EXTT21=
EXTT22=
EXTT23=
EXTT24=
PLAYORDER=
